<mxfile host="Electron" modified="2024-07-12T00:03:26.404Z" agent="Mozilla/5.0 (Windows NT 10.0; Win64; x64) AppleWebKit/537.36 (KHTML, like Gecko) draw.io/24.5.1 Chrome/124.0.6367.207 Electron/30.0.6 Safari/537.36" etag="L6cEiqRZKv4oms8QMKEi" version="24.5.1" type="device">
  <diagram name="Page-1" id="OrXE2xgcT1UgA5SjQYbq">
    <mxGraphModel dx="1538" dy="1932" grid="1" gridSize="10" guides="1" tooltips="1" connect="1" arrows="1" fold="1" page="1" pageScale="1" pageWidth="827" pageHeight="1169" math="0" shadow="0">
      <root>
        <mxCell id="0" />
        <mxCell id="1" parent="0" />
        <mxCell id="UFI3GlEw2zQ9Nwjoof3A-18" value="" style="outlineConnect=0;dashed=0;verticalLabelPosition=bottom;verticalAlign=top;align=center;html=1;shape=mxgraph.aws3.s3;fillColor=#E05243;gradientColor=none;" vertex="1" parent="1">
          <mxGeometry x="144.13" y="-570" width="58.25" height="63" as="geometry" />
        </mxCell>
        <mxCell id="UFI3GlEw2zQ9Nwjoof3A-19" value="" style="sketch=0;points=[[0,0,0],[0.25,0,0],[0.5,0,0],[0.75,0,0],[1,0,0],[0,1,0],[0.25,1,0],[0.5,1,0],[0.75,1,0],[1,1,0],[0,0.25,0],[0,0.5,0],[0,0.75,0],[1,0.25,0],[1,0.5,0],[1,0.75,0]];outlineConnect=0;fontColor=#232F3E;fillColor=#E7157B;strokeColor=#ffffff;dashed=0;verticalLabelPosition=bottom;verticalAlign=top;align=center;html=1;fontSize=12;fontStyle=0;aspect=fixed;shape=mxgraph.aws4.resourceIcon;resIcon=mxgraph.aws4.step_functions;" vertex="1" parent="1">
          <mxGeometry x="630" y="-557.62" width="50.62" height="50.62" as="geometry" />
        </mxCell>
        <mxCell id="UFI3GlEw2zQ9Nwjoof3A-74" style="edgeStyle=orthogonalEdgeStyle;rounded=0;orthogonalLoop=1;jettySize=auto;html=1;" edge="1" parent="1" source="UFI3GlEw2zQ9Nwjoof3A-20" target="UFI3GlEw2zQ9Nwjoof3A-21">
          <mxGeometry relative="1" as="geometry" />
        </mxCell>
        <mxCell id="UFI3GlEw2zQ9Nwjoof3A-20" value="" style="sketch=0;points=[[0,0,0],[0.25,0,0],[0.5,0,0],[0.75,0,0],[1,0,0],[0,1,0],[0.25,1,0],[0.5,1,0],[0.75,1,0],[1,1,0],[0,0.25,0],[0,0.5,0],[0,0.75,0],[1,0.25,0],[1,0.5,0],[1,0.75,0]];outlineConnect=0;fontColor=#232F3E;fillColor=#E7157B;strokeColor=#ffffff;dashed=0;verticalLabelPosition=bottom;verticalAlign=top;align=center;html=1;fontSize=12;fontStyle=0;aspect=fixed;shape=mxgraph.aws4.resourceIcon;resIcon=mxgraph.aws4.step_functions;" vertex="1" parent="1">
          <mxGeometry x="640" y="-410" width="50" height="50" as="geometry" />
        </mxCell>
        <mxCell id="UFI3GlEw2zQ9Nwjoof3A-21" value="" style="sketch=0;points=[[0,0,0],[0.25,0,0],[0.5,0,0],[0.75,0,0],[1,0,0],[0,1,0],[0.25,1,0],[0.5,1,0],[0.75,1,0],[1,1,0],[0,0.25,0],[0,0.5,0],[0,0.75,0],[1,0.25,0],[1,0.5,0],[1,0.75,0]];outlineConnect=0;fontColor=#232F3E;fillColor=#E7157B;strokeColor=#ffffff;dashed=0;verticalLabelPosition=bottom;verticalAlign=top;align=center;html=1;fontSize=12;fontStyle=0;aspect=fixed;shape=mxgraph.aws4.resourceIcon;resIcon=mxgraph.aws4.step_functions;" vertex="1" parent="1">
          <mxGeometry x="630.0000000000001" y="-240" width="50" height="50" as="geometry" />
        </mxCell>
        <mxCell id="UFI3GlEw2zQ9Nwjoof3A-77" style="edgeStyle=orthogonalEdgeStyle;rounded=0;orthogonalLoop=1;jettySize=auto;html=1;" edge="1" parent="1" source="UFI3GlEw2zQ9Nwjoof3A-22" target="UFI3GlEw2zQ9Nwjoof3A-29">
          <mxGeometry relative="1" as="geometry" />
        </mxCell>
        <mxCell id="UFI3GlEw2zQ9Nwjoof3A-22" value="" style="sketch=0;points=[[0,0,0],[0.25,0,0],[0.5,0,0],[0.75,0,0],[1,0,0],[0,1,0],[0.25,1,0],[0.5,1,0],[0.75,1,0],[1,1,0],[0,0.25,0],[0,0.5,0],[0,0.75,0],[1,0.25,0],[1,0.5,0],[1,0.75,0]];outlineConnect=0;fontColor=#232F3E;fillColor=#E7157B;strokeColor=#ffffff;dashed=0;verticalLabelPosition=bottom;verticalAlign=top;align=center;html=1;fontSize=12;fontStyle=0;aspect=fixed;shape=mxgraph.aws4.resourceIcon;resIcon=mxgraph.aws4.step_functions;" vertex="1" parent="1">
          <mxGeometry x="280" y="-240" width="50" height="50" as="geometry" />
        </mxCell>
        <mxCell id="UFI3GlEw2zQ9Nwjoof3A-23" value="" style="sketch=0;points=[[0,0,0],[0.25,0,0],[0.5,0,0],[0.75,0,0],[1,0,0],[0,1,0],[0.25,1,0],[0.5,1,0],[0.75,1,0],[1,1,0],[0,0.25,0],[0,0.5,0],[0,0.75,0],[1,0.25,0],[1,0.5,0],[1,0.75,0]];outlineConnect=0;fontColor=#232F3E;fillColor=#E7157B;strokeColor=#ffffff;dashed=0;verticalLabelPosition=bottom;verticalAlign=top;align=center;html=1;fontSize=12;fontStyle=0;aspect=fixed;shape=mxgraph.aws4.resourceIcon;resIcon=mxgraph.aws4.step_functions;" vertex="1" parent="1">
          <mxGeometry x="432.5" y="-240" width="55" height="55" as="geometry" />
        </mxCell>
        <mxCell id="UFI3GlEw2zQ9Nwjoof3A-49" value="" style="sketch=0;points=[[0,0,0],[0.25,0,0],[0.5,0,0],[0.75,0,0],[1,0,0],[0,1,0],[0.25,1,0],[0.5,1,0],[0.75,1,0],[1,1,0],[0,0.25,0],[0,0.5,0],[0,0.75,0],[1,0.25,0],[1,0.5,0],[1,0.75,0]];outlineConnect=0;fontColor=#232F3E;fillColor=#E7157B;strokeColor=#ffffff;dashed=0;verticalLabelPosition=bottom;verticalAlign=top;align=center;html=1;fontSize=12;fontStyle=0;aspect=fixed;shape=mxgraph.aws4.resourceIcon;resIcon=mxgraph.aws4.eventbridge;" vertex="1" parent="1">
          <mxGeometry x="480" y="-563.5" width="50" height="50" as="geometry" />
        </mxCell>
        <mxCell id="UFI3GlEw2zQ9Nwjoof3A-50" value="" style="outlineConnect=0;dashed=0;verticalLabelPosition=bottom;verticalAlign=top;align=center;html=1;shape=mxgraph.aws3.cloudtrail;fillColor=#759C3E;gradientColor=none;" vertex="1" parent="1">
          <mxGeometry x="320" y="-570" width="70" height="63" as="geometry" />
        </mxCell>
        <mxCell id="UFI3GlEw2zQ9Nwjoof3A-57" value="AWS Cloud" style="points=[[0,0],[0.25,0],[0.5,0],[0.75,0],[1,0],[1,0.25],[1,0.5],[1,0.75],[1,1],[0.75,1],[0.5,1],[0.25,1],[0,1],[0,0.75],[0,0.5],[0,0.25]];outlineConnect=0;gradientColor=none;html=1;whiteSpace=wrap;fontSize=12;fontStyle=0;container=1;pointerEvents=0;collapsible=0;recursiveResize=0;shape=mxgraph.aws4.group;grIcon=mxgraph.aws4.group_aws_cloud;strokeColor=#232F3E;fillColor=none;verticalAlign=top;align=left;spacingLeft=30;fontColor=#232F3E;dashed=0;" vertex="1" parent="1">
          <mxGeometry x="20" y="-790" width="790" height="740" as="geometry" />
        </mxCell>
        <mxCell id="UFI3GlEw2zQ9Nwjoof3A-51" value="" style="outlineConnect=0;dashed=0;verticalLabelPosition=bottom;verticalAlign=top;align=center;html=1;shape=mxgraph.aws3.iam;fillColor=#759C3E;gradientColor=none;" vertex="1" parent="UFI3GlEw2zQ9Nwjoof3A-57">
          <mxGeometry x="730" y="10" width="42" height="50" as="geometry" />
        </mxCell>
        <mxCell id="UFI3GlEw2zQ9Nwjoof3A-86" value="IAM" style="text;strokeColor=none;align=center;fillColor=none;html=1;verticalAlign=middle;whiteSpace=wrap;rounded=0;" vertex="1" parent="UFI3GlEw2zQ9Nwjoof3A-57">
          <mxGeometry x="670" y="30" width="60" height="30" as="geometry" />
        </mxCell>
        <mxCell id="UFI3GlEw2zQ9Nwjoof3A-59" value="Region" style="points=[[0,0],[0.25,0],[0.5,0],[0.75,0],[1,0],[1,0.25],[1,0.5],[1,0.75],[1,1],[0.75,1],[0.5,1],[0.25,1],[0,1],[0,0.75],[0,0.5],[0,0.25]];outlineConnect=0;gradientColor=none;html=1;whiteSpace=wrap;fontSize=12;fontStyle=0;container=1;pointerEvents=0;collapsible=0;recursiveResize=0;shape=mxgraph.aws4.group;grIcon=mxgraph.aws4.group_region;strokeColor=#00A4A6;fillColor=none;verticalAlign=top;align=left;spacingLeft=30;fontColor=#147EBA;dashed=1;" vertex="1" parent="1">
          <mxGeometry x="40" y="-720" width="750" height="600" as="geometry" />
        </mxCell>
        <mxCell id="UFI3GlEw2zQ9Nwjoof3A-81" style="edgeStyle=orthogonalEdgeStyle;rounded=0;orthogonalLoop=1;jettySize=auto;html=1;entryX=0.5;entryY=0;entryDx=0;entryDy=0;" edge="1" parent="UFI3GlEw2zQ9Nwjoof3A-59" source="UFI3GlEw2zQ9Nwjoof3A-56" target="UFI3GlEw2zQ9Nwjoof3A-63">
          <mxGeometry relative="1" as="geometry" />
        </mxCell>
        <mxCell id="UFI3GlEw2zQ9Nwjoof3A-56" value="" style="outlineConnect=0;dashed=0;verticalLabelPosition=bottom;verticalAlign=top;align=center;html=1;shape=mxgraph.aws3.cloudformation;fillColor=#759C3E;gradientColor=none;" vertex="1" parent="UFI3GlEw2zQ9Nwjoof3A-59">
          <mxGeometry x="103.26" y="30" width="60" height="60" as="geometry" />
        </mxCell>
        <mxCell id="UFI3GlEw2zQ9Nwjoof3A-60" value="cloud formation" style="text;strokeColor=none;align=center;fillColor=none;html=1;verticalAlign=middle;whiteSpace=wrap;rounded=0;" vertex="1" parent="UFI3GlEw2zQ9Nwjoof3A-59">
          <mxGeometry x="103.26" y="10" width="60" height="20" as="geometry" />
        </mxCell>
        <mxCell id="UFI3GlEw2zQ9Nwjoof3A-61" value="cloudtrail" style="text;strokeColor=none;align=center;fillColor=none;html=1;verticalAlign=middle;whiteSpace=wrap;rounded=0;" vertex="1" parent="UFI3GlEw2zQ9Nwjoof3A-59">
          <mxGeometry x="290" y="126" width="60" height="21" as="geometry" />
        </mxCell>
        <mxCell id="UFI3GlEw2zQ9Nwjoof3A-63" value="&lt;div&gt;&lt;br&gt;&lt;/div&gt;&lt;div&gt;s3 bucket&lt;/div&gt;" style="text;strokeColor=none;align=center;fillColor=none;html=1;verticalAlign=middle;whiteSpace=wrap;rounded=0;" vertex="1" parent="UFI3GlEw2zQ9Nwjoof3A-59">
          <mxGeometry x="103.25999999999999" y="126" width="60" height="20" as="geometry" />
        </mxCell>
        <mxCell id="UFI3GlEw2zQ9Nwjoof3A-64" value="eventbridge" style="text;strokeColor=none;align=center;fillColor=none;html=1;verticalAlign=middle;whiteSpace=wrap;rounded=0;" vertex="1" parent="UFI3GlEw2zQ9Nwjoof3A-59">
          <mxGeometry x="430" y="126" width="60" height="30" as="geometry" />
        </mxCell>
        <mxCell id="UFI3GlEw2zQ9Nwjoof3A-30" value="Amazon Polly" style="sketch=0;outlineConnect=0;fontColor=#232F3E;gradientColor=none;strokeColor=#ffffff;fillColor=#232F3E;dashed=0;verticalLabelPosition=middle;verticalAlign=bottom;align=center;html=1;whiteSpace=wrap;fontSize=10;fontStyle=1;spacing=3;shape=mxgraph.aws4.productIcon;prIcon=mxgraph.aws4.polly;" vertex="1" parent="UFI3GlEw2zQ9Nwjoof3A-59">
          <mxGeometry x="103.25999999999999" y="310" width="40.89" height="70" as="geometry" />
        </mxCell>
        <mxCell id="UFI3GlEw2zQ9Nwjoof3A-66" style="edgeStyle=orthogonalEdgeStyle;rounded=0;orthogonalLoop=1;jettySize=auto;html=1;" edge="1" parent="UFI3GlEw2zQ9Nwjoof3A-59" source="UFI3GlEw2zQ9Nwjoof3A-29" target="UFI3GlEw2zQ9Nwjoof3A-30">
          <mxGeometry relative="1" as="geometry" />
        </mxCell>
        <mxCell id="UFI3GlEw2zQ9Nwjoof3A-29" value="Amazon Translate" style="sketch=0;outlineConnect=0;fontColor=#232F3E;gradientColor=none;strokeColor=#ffffff;fillColor=#232F3E;dashed=0;verticalLabelPosition=middle;verticalAlign=bottom;align=center;html=1;whiteSpace=wrap;fontSize=10;fontStyle=1;spacing=3;shape=mxgraph.aws4.productIcon;prIcon=mxgraph.aws4.translate;" vertex="1" parent="UFI3GlEw2zQ9Nwjoof3A-59">
          <mxGeometry x="100" y="470" width="44.57" height="70" as="geometry" />
        </mxCell>
        <mxCell id="UFI3GlEw2zQ9Nwjoof3A-52" value="User" style="sketch=0;outlineConnect=0;fontColor=#232F3E;gradientColor=none;strokeColor=#232F3E;fillColor=#ffffff;dashed=0;verticalLabelPosition=bottom;verticalAlign=top;align=center;html=1;fontSize=12;fontStyle=0;aspect=fixed;shape=mxgraph.aws4.resourceIcon;resIcon=mxgraph.aws4.user;" vertex="1" parent="UFI3GlEw2zQ9Nwjoof3A-59">
          <mxGeometry x="10" y="106" width="30" height="30" as="geometry" />
        </mxCell>
        <mxCell id="3" value="Start Transcription" style="shape=mxgraph.aws4.transcribe;whiteSpace=wrap;html=1;" vertex="1" parent="UFI3GlEw2zQ9Nwjoof3A-59">
          <mxGeometry x="580" y="123.63" width="87.72" height="25.75" as="geometry" />
        </mxCell>
        <mxCell id="5" value="Get Transcription" style="shape=mxgraph.aws4.transcribe;whiteSpace=wrap;html=1;" vertex="1" parent="UFI3GlEw2zQ9Nwjoof3A-59">
          <mxGeometry x="567.72" y="541.4300000000001" width="100" height="37.13" as="geometry" />
        </mxCell>
        <mxCell id="7" value="Read S3 Object" style="shape=mxgraph.aws4.bucket_with_objects;whiteSpace=wrap;html=1;" vertex="1" parent="UFI3GlEw2zQ9Nwjoof3A-59">
          <mxGeometry x="220" y="540" width="100" height="10" as="geometry" />
        </mxCell>
        <mxCell id="UFI3GlEw2zQ9Nwjoof3A-79" value="Is Transcription Complete?" style="text;strokeColor=none;align=center;fillColor=none;html=1;verticalAlign=middle;whiteSpace=wrap;rounded=0;" vertex="1" parent="UFI3GlEw2zQ9Nwjoof3A-59">
          <mxGeometry x="390" y="550" width="60" height="20" as="geometry" />
        </mxCell>
        <mxCell id="UFI3GlEw2zQ9Nwjoof3A-83" value="wait and get task" style="text;strokeColor=none;align=center;fillColor=none;html=1;verticalAlign=middle;whiteSpace=wrap;rounded=0;" vertex="1" parent="UFI3GlEw2zQ9Nwjoof3A-59">
          <mxGeometry x="660" y="320" width="60" height="30" as="geometry" />
        </mxCell>
        <mxCell id="UFI3GlEw2zQ9Nwjoof3A-65" style="edgeStyle=orthogonalEdgeStyle;rounded=0;orthogonalLoop=1;jettySize=auto;html=1;" edge="1" parent="1" source="UFI3GlEw2zQ9Nwjoof3A-30" target="UFI3GlEw2zQ9Nwjoof3A-18">
          <mxGeometry relative="1" as="geometry" />
        </mxCell>
        <mxCell id="UFI3GlEw2zQ9Nwjoof3A-69" style="edgeStyle=orthogonalEdgeStyle;rounded=0;orthogonalLoop=1;jettySize=auto;html=1;entryX=0;entryY=0.5;entryDx=0;entryDy=0;entryPerimeter=0;" edge="1" parent="1" source="UFI3GlEw2zQ9Nwjoof3A-52" target="UFI3GlEw2zQ9Nwjoof3A-18">
          <mxGeometry relative="1" as="geometry" />
        </mxCell>
        <mxCell id="UFI3GlEw2zQ9Nwjoof3A-70" style="edgeStyle=orthogonalEdgeStyle;rounded=0;orthogonalLoop=1;jettySize=auto;html=1;entryX=0;entryY=0.5;entryDx=0;entryDy=0;entryPerimeter=0;" edge="1" parent="1" source="UFI3GlEw2zQ9Nwjoof3A-18" target="UFI3GlEw2zQ9Nwjoof3A-50">
          <mxGeometry relative="1" as="geometry" />
        </mxCell>
        <mxCell id="UFI3GlEw2zQ9Nwjoof3A-71" style="edgeStyle=orthogonalEdgeStyle;rounded=0;orthogonalLoop=1;jettySize=auto;html=1;entryX=0;entryY=0.5;entryDx=0;entryDy=0;entryPerimeter=0;" edge="1" parent="1" source="UFI3GlEw2zQ9Nwjoof3A-50" target="UFI3GlEw2zQ9Nwjoof3A-49">
          <mxGeometry relative="1" as="geometry" />
        </mxCell>
        <mxCell id="UFI3GlEw2zQ9Nwjoof3A-72" style="edgeStyle=orthogonalEdgeStyle;rounded=0;orthogonalLoop=1;jettySize=auto;html=1;entryX=0;entryY=0.5;entryDx=0;entryDy=0;entryPerimeter=0;" edge="1" parent="1" source="UFI3GlEw2zQ9Nwjoof3A-49" target="UFI3GlEw2zQ9Nwjoof3A-19">
          <mxGeometry relative="1" as="geometry" />
        </mxCell>
        <mxCell id="UFI3GlEw2zQ9Nwjoof3A-73" style="edgeStyle=orthogonalEdgeStyle;rounded=0;orthogonalLoop=1;jettySize=auto;html=1;entryX=0.25;entryY=0;entryDx=0;entryDy=0;entryPerimeter=0;" edge="1" parent="1" source="UFI3GlEw2zQ9Nwjoof3A-19" target="UFI3GlEw2zQ9Nwjoof3A-20">
          <mxGeometry relative="1" as="geometry" />
        </mxCell>
        <mxCell id="UFI3GlEw2zQ9Nwjoof3A-75" style="edgeStyle=orthogonalEdgeStyle;rounded=0;orthogonalLoop=1;jettySize=auto;html=1;entryX=1;entryY=0.5;entryDx=0;entryDy=0;entryPerimeter=0;" edge="1" parent="1" source="UFI3GlEw2zQ9Nwjoof3A-21" target="UFI3GlEw2zQ9Nwjoof3A-23">
          <mxGeometry relative="1" as="geometry" />
        </mxCell>
        <mxCell id="UFI3GlEw2zQ9Nwjoof3A-76" style="edgeStyle=orthogonalEdgeStyle;rounded=0;orthogonalLoop=1;jettySize=auto;html=1;entryX=1;entryY=0.5;entryDx=0;entryDy=0;entryPerimeter=0;" edge="1" parent="1" source="UFI3GlEw2zQ9Nwjoof3A-23" target="UFI3GlEw2zQ9Nwjoof3A-22">
          <mxGeometry relative="1" as="geometry" />
        </mxCell>
      </root>
    </mxGraphModel>
  </diagram>
</mxfile>
